<?xml version="1.0" encoding="utf-8"?>
<!-- Generator: Adobe Illustrator 19.0.0, SVG Export Plug-In . SVG Version: 6.00 Build 0)  -->
<svg version="1.1" id="Calque_1" xmlns="http://www.w3.org/2000/svg" xmlns:xlink="http://www.w3.org/1999/xlink" x="0px" y="0px"
	 viewBox="0 0 800 140" style="enable-background:new 0 0 800 140;" xml:space="preserve">
<style type="text/css">
	.st0{clip-path:url(#XMLID_332_);fill:url(#XMLID_333_);}
	.st1{stroke:#000000;stroke-miterlimit:10;}
</style>
<g id="XMLID_188_">
	<defs>
		<path id="XMLID_189_" d="M198.4,95.3c5.2-7.7,8.1-17.7,7.9-28.1v0c-0.2-11.9-4.1-22.8-11-30.7c-8-9.1-19.6-13.9-33.7-13.9
			c-13,0-24.1,4.2-32.1,12.2c-3.4,3.5-6.3,7.6-8.4,12.3c-6.8-14.9-21.6-24.5-41.4-24.5C51,22.6,33,40.3,36.3,75.7h67.1
			C102.1,86.4,92.8,94,77.8,94c-7.8,0-18.1-3-23-8L41.2,99.4c9.1,9.4,23.9,13.9,37,13.9c21.1,0,36-9.2,43-24.5
			c1.7,3.8,3.9,7.3,6.5,10.3c8,9.2,19.7,14.1,34,14.1c9.6,0,17.9-2.1,24.5-6.3l10.3,10.2l0.2,0.2l12-12L198.4,95.3z M56.7,58.1
			C58.1,47,66.9,41.4,79.1,41.4c11.5,0,20.9,5.6,24.1,16.7H56.7z M179.2,87.2c-4.5,4.7-10.5,7.1-17.6,7.1c-16.1,0-24.8-13-25-25.9
			c-0.1-8,2.6-15.5,7.4-20.4c4.4-4.5,10.3-6.8,17.6-6.8c22,0,24.6,19.6,24.9,25.6C186.8,74.5,184.1,82.1,179.2,87.2z"/>
	</defs>
	<linearGradient id="XMLID_331_" gradientUnits="userSpaceOnUse" x1="43.2823" y1="44.0543" x2="196.2747" y2="92.0519">
		<stop  offset="0" style="stop-color:#00E0FF"/>
		<stop  offset="1" style="stop-color:#00B2FF"/>
	</linearGradient>
	<use xlink:href="#XMLID_189_"  style="overflow:visible;fill:url(#XMLID_331_);"/>
	<clipPath id="XMLID_332_">
		<use xlink:href="#XMLID_189_"  style="overflow:visible;"/>
	</clipPath>
	<linearGradient id="XMLID_333_" gradientUnits="userSpaceOnUse" x1="50.9059" y1="19.7542" x2="203.8982" y2="67.7518">
		<stop  offset="0" style="stop-color:#00E0FF"/>
		<stop  offset="1" style="stop-color:#00B2FF"/>
	</linearGradient>
	<rect id="XMLID_193_" x="-12.6" y="-16.2" class="st0" width="360.7" height="145.3"/>
</g>
<g id="XMLID_54_">
	<path id="XMLID_55_" class="st1" d="M269.8,71.7C269.8,56.8,281,46,295,46c14,0,26.5,8.6,24.6,28h-44.8c1,11.7,10,18.4,20.2,18.4
		c6.5,0,14.2-2.6,17.9-7.6l3.5,2.8c-4.8,6.3-13.5,9.6-21.5,9.6C281,97.3,269.8,87.5,269.8,71.7z M315.2,69.7
		c-0.1-12.3-8.2-19.1-20.1-19.1c-10.3,0-19.1,6.9-20.2,19.1H315.2z"/>
	<path id="XMLID_58_" class="st1" d="M380.6,117.3V85.1c-4.2,8.3-12.1,12.4-20.5,12.4c-14,0-25.3-9.1-25.3-25.8
		c0-16,10.7-25.1,24.2-25.6c9.7,0,17.6,4.9,21.6,12.5V46.8h4.8v70.5H380.6z M380.2,71.8c0-12.2-8.6-20.9-20.1-20.9
		c-11.3,0-20.3,6.8-20.3,20.8s9.1,21,20.3,21C371.5,92.8,380.2,84,380.2,71.8z"/>
	<path id="XMLID_61_" class="st1" d="M443.5,96.6v-9c-3.8,6.8-10.8,9.7-17.7,9.8c-13.3,0-22.5-8.2-22.5-22V46.7h4.9v28.6
		c0,11.3,6.9,17.3,17.7,17.2c10.3-0.1,17.4-7.9,17.4-18.1V46.7h4.9v49.9H443.5z"/>
	<path id="XMLID_63_" class="st1" d="M472.9,30.6c0,5.2-8,5.2-8,0S472.9,25.4,472.9,30.6z M466.3,46.6v50h4.9v-50H466.3z"/>
	<path id="XMLID_66_" class="st1" d="M501.8,31.8v15h16.9V51h-16.9v30.3c0,6.7,1.4,11.5,9.2,11.5c2.4,0,5.1-0.8,7.7-2l1.7,4
		c-3.1,1.5-6.2,2.5-9.4,2.5c-10.6,0-14-6.2-14-16V51h-10.6v-4.1H497V32.3L501.8,31.8z"/>
	<path id="XMLID_68_" class="st1" d="M532.3,71.7c0-14.9,11.3-25.7,25.3-25.7c14,0,26.5,8.6,24.6,28h-44.8c1,11.7,10,18.4,20.2,18.4
		c6.5,0,14.2-2.6,17.9-7.6l3.5,2.8c-4.8,6.3-13.5,9.6-21.5,9.6C543.6,97.3,532.3,87.5,532.3,71.7z M577.7,69.7
		c-0.1-12.3-8.2-19.1-20.1-19.1c-10.3,0-19.1,6.9-20.2,19.1H577.7z"/>
	<path id="XMLID_71_" class="st1" d="M647.8,46.8c0,16.6,0,33.1,0,49.7h-4.9V86c-4.8,7.8-12.3,11.4-20.3,11.4
		c-13.9,0-25.3-10.5-25.3-25.7c0-15.2,11.4-25.5,25.3-25.5c8.1,0,16.2,3.7,20.3,11.5V46.8H647.8z M602.2,71.7
		c0,12.5,9.1,20.8,20.3,20.8c27.7,0,27.7-41.6,0-41.6C611.3,51,602.2,59.2,602.2,71.7z"/>
	<path id="XMLID_74_" class="st1" d="M700.4,55.9c-5-4.4-10-5.2-15.5-5.2c-7.8-0.1-15.2,2.8-15,9.2c0.2,6.6,8.9,8,15.1,9.1
		c8.9,1.5,21,3,20.5,14.6c-0.3,11-11.7,13.9-20.4,13.9c-8.8,0-17.4-3.3-21.8-10l3.6-3.2c4.1,5.9,11.6,8.5,18.2,8.5
		c6,0,15.2-1.6,15.5-9.5c0.2-7.2-8.1-8.6-16.2-9.9c-9.7-1.6-19.2-3.4-19.3-13.4c-0.1-9.8,9.7-14,19.7-13.9c7.3,0,13.6,2,18.5,6.6
		L700.4,55.9z"/>
	<path id="XMLID_76_" class="st1" d="M764,46.8l-30.3,70.5h-5.2l9.2-21.3l-19.9-49.1h5.3l11.6,29.4l5.8,14.4l5.7-14.5l12.5-29.3H764
		z"/>
</g>
</svg>
