<?xml version="1.0" encoding="utf-8"?>
<!-- Generator: Adobe Illustrator 19.0.0, SVG Export Plug-In . SVG Version: 6.00 Build 0)  -->
<svg version="1.1" id="Calque_1" xmlns="http://www.w3.org/2000/svg" xmlns:xlink="http://www.w3.org/1999/xlink" x="0px" y="0px"
	 viewBox="-239 331 800 140" style="enable-background:new -239 331 800 140;" xml:space="preserve">
<style type="text/css">
	.st0{fill:#FFFFFF;}
	.st1{clip-path:url(#SVGID_2_);fill:#FFFFFF;}
	.st2{fill:#FFFFFF;stroke:#FFFFFF;stroke-miterlimit:10;}
</style>
<g id="XMLID_188_">
	<g>
		<path id="XMLID_189_" class="st0" d="M-40.6,426.3c5.2-7.7,8.1-17.7,7.9-28.1l0,0c-0.2-11.9-4.1-22.8-11-30.7
			c-8-9.1-19.6-13.9-33.7-13.9c-13,0-24.1,4.2-32.1,12.2c-3.4,3.5-6.3,7.6-8.4,12.3c-6.8-14.9-21.6-24.5-41.4-24.5
			c-28.7,0-46.7,17.7-43.4,53.1h67.1c-1.3,10.7-10.6,18.3-25.6,18.3c-7.8,0-18.1-3-23-8l-13.6,13.4c9.1,9.4,23.9,13.9,37,13.9
			c21.1,0,36-9.2,43-24.5c1.7,3.8,3.9,7.3,6.5,10.3c8,9.2,19.7,14.1,34,14.1c9.6,0,17.9-2.1,24.5-6.3l10.3,10.2l0.2,0.2l12-12
			L-40.6,426.3z M-182.3,389.1c1.4-11.1,10.2-16.7,22.4-16.7c11.5,0,20.9,5.6,24.1,16.7C-135.8,389.1-182.3,389.1-182.3,389.1z
			 M-59.8,418.2c-4.5,4.7-10.5,7.1-17.6,7.1c-16.1,0-24.8-13-25-25.9c-0.1-8,2.6-15.5,7.4-20.4c4.4-4.5,10.3-6.8,17.6-6.8
			c22,0,24.6,19.6,24.9,25.6C-52.2,405.5-54.9,413.1-59.8,418.2z"/>
	</g>
	<g>
		<defs>
			<path id="SVGID_1_" d="M-40.6,426.3c5.2-7.7,8.1-17.7,7.9-28.1l0,0c-0.2-11.9-4.1-22.8-11-30.7c-8-9.1-19.6-13.9-33.7-13.9
				c-13,0-24.1,4.2-32.1,12.2c-3.4,3.5-6.3,7.6-8.4,12.3c-6.8-14.9-21.6-24.5-41.4-24.5c-28.7,0-46.7,17.7-43.4,53.1h67.1
				c-1.3,10.7-10.6,18.3-25.6,18.3c-7.8,0-18.1-3-23-8l-13.6,13.4c9.1,9.4,23.9,13.9,37,13.9c21.1,0,36-9.2,43-24.5
				c1.7,3.8,3.9,7.3,6.5,10.3c8,9.2,19.7,14.1,34,14.1c9.6,0,17.9-2.1,24.5-6.3l10.3,10.2l0.2,0.2l12-12L-40.6,426.3z M-182.3,389.1
				c1.4-11.1,10.2-16.7,22.4-16.7c11.5,0,20.9,5.6,24.1,16.7C-135.8,389.1-182.3,389.1-182.3,389.1z M-59.8,418.2
				c-4.5,4.7-10.5,7.1-17.6,7.1c-16.1,0-24.8-13-25-25.9c-0.1-8,2.6-15.5,7.4-20.4c4.4-4.5,10.3-6.8,17.6-6.8
				c22,0,24.6,19.6,24.9,25.6C-52.2,405.5-54.9,413.1-59.8,418.2z"/>
		</defs>
		<use xlink:href="#SVGID_1_"  style="overflow:visible;fill:#FFFFFF;"/>
		<clipPath id="SVGID_2_">
			<use xlink:href="#SVGID_1_"  style="overflow:visible;"/>
		</clipPath>
		<rect id="XMLID_193_" x="-251.6" y="314.8" class="st1" width="360.7" height="145.3"/>
	</g>
</g>
<g id="XMLID_54_">
	<path id="XMLID_55_" class="st2" d="M30.8,402.7C30.8,387.8,42,377,56,377s26.5,8.6,24.6,28H35.8c1,11.7,10,18.4,20.2,18.4
		c6.5,0,14.2-2.6,17.9-7.6l3.5,2.8c-4.8,6.3-13.5,9.6-21.5,9.6C42,428.3,30.8,418.5,30.8,402.7z M76.2,400.7
		c-0.1-12.3-8.2-19.1-20.1-19.1c-10.3,0-19.1,6.9-20.2,19.1H76.2z"/>
	<path id="XMLID_58_" class="st2" d="M141.6,448.3v-32.2c-4.2,8.3-12.1,12.4-20.5,12.4c-14,0-25.3-9.1-25.3-25.8
		c0-16,10.7-25.1,24.2-25.6c9.7,0,17.6,4.9,21.6,12.5v-11.8h4.8v70.5H141.6z M141.2,402.8c0-12.2-8.6-20.9-20.1-20.9
		c-11.3,0-20.3,6.8-20.3,20.8s9.1,21,20.3,21C132.5,423.8,141.2,415,141.2,402.8z"/>
	<path id="XMLID_61_" class="st2" d="M204.5,427.6v-9c-3.8,6.8-10.8,9.7-17.7,9.8c-13.3,0-22.5-8.2-22.5-22v-28.7h4.9v28.6
		c0,11.3,6.9,17.3,17.7,17.2c10.3-0.1,17.4-7.9,17.4-18.1v-27.7h4.9v49.9C209.2,427.6,204.5,427.6,204.5,427.6z"/>
	<path id="XMLID_63_" class="st2" d="M233.9,361.6c0,5.2-8,5.2-8,0C225.9,356.4,233.9,356.4,233.9,361.6z M227.3,377.6v50h4.9v-50
		H227.3z"/>
	<path id="XMLID_66_" class="st2" d="M262.8,362.8v15h16.9v4.2h-16.9v30.3c0,6.7,1.4,11.5,9.2,11.5c2.4,0,5.1-0.8,7.7-2l1.7,4
		c-3.1,1.5-6.2,2.5-9.4,2.5c-10.6,0-14-6.2-14-16V382h-10.6v-4.1H258v-14.6L262.8,362.8z"/>
	<path id="XMLID_68_" class="st2" d="M293.3,402.7c0-14.9,11.3-25.7,25.3-25.7s26.5,8.6,24.6,28h-44.8c1,11.7,10,18.4,20.2,18.4
		c6.5,0,14.2-2.6,17.9-7.6l3.5,2.8c-4.8,6.3-13.5,9.6-21.5,9.6C304.6,428.3,293.3,418.5,293.3,402.7z M338.7,400.7
		c-0.1-12.3-8.2-19.1-20.1-19.1c-10.3,0-19.1,6.9-20.2,19.1H338.7z"/>
	<path id="XMLID_71_" class="st2" d="M408.8,377.8c0,16.6,0,33.1,0,49.7h-4.9V417c-4.8,7.8-12.3,11.4-20.3,11.4
		c-13.9,0-25.3-10.5-25.3-25.7c0-15.2,11.4-25.5,25.3-25.5c8.1,0,16.2,3.7,20.3,11.5v-10.9H408.8z M363.2,402.7
		c0,12.5,9.1,20.8,20.3,20.8c27.7,0,27.7-41.6,0-41.6C372.3,382,363.2,390.2,363.2,402.7z"/>
	<path id="XMLID_74_" class="st2" d="M461.4,386.9c-5-4.4-10-5.2-15.5-5.2c-7.8-0.1-15.2,2.8-15,9.2c0.2,6.6,8.9,8,15.1,9.1
		c8.9,1.5,21,3,20.5,14.6c-0.3,11-11.7,13.9-20.4,13.9c-8.8,0-17.4-3.3-21.8-10l3.6-3.2c4.1,5.9,11.6,8.5,18.2,8.5
		c6,0,15.2-1.6,15.5-9.5c0.2-7.2-8.1-8.6-16.2-9.9c-9.7-1.6-19.2-3.4-19.3-13.4c-0.1-9.8,9.7-14,19.7-13.9c7.3,0,13.6,2,18.5,6.6
		L461.4,386.9z"/>
	<path id="XMLID_76_" class="st2" d="M525,377.8l-30.3,70.5h-5.2l9.2-21.3l-19.9-49.1h5.3l11.6,29.4l5.8,14.4l5.7-14.5l12.5-29.3
		h5.3V377.8z"/>
</g>
</svg>
