<?xml version="1.0" encoding="utf-8"?>
<!-- Generator: Adobe Illustrator 19.0.0, SVG Export Plug-In . SVG Version: 6.00 Build 0)  -->
<svg version="1.1" id="Calque_1" xmlns="http://www.w3.org/2000/svg" xmlns:xlink="http://www.w3.org/1999/xlink" x="0px" y="0px"
	 viewBox="0 0 580 300" style="enable-background:new 0 0 580 300;" xml:space="preserve">
<style type="text/css">
	.st0{clip-path:url(#XMLID_4_);fill:url(#XMLID_5_);}
	.st1{clip-path:url(#XMLID_7_);fill:url(#XMLID_8_);}
	.st2{stroke:#000000;stroke-miterlimit:10;}
</style>
<g id="XMLID_188_">
	<defs>
		<path id="XMLID_189_" d="M88.4-424.7c5.2-7.7,8.1-17.7,7.9-28.1v0c-0.2-11.9-4.1-22.8-11-30.7c-8-9.1-19.6-13.9-33.7-13.9
			c-13,0-24.1,4.2-32.1,12.2c-3.4,3.5-6.3,7.6-8.4,12.3c-6.8-14.9-21.6-24.5-41.4-24.5c-28.8,0-46.7,17.8-43.4,53.2h67.1
			C-7.9-433.6-17.2-426-32.2-426c-7.8,0-18.1-3-23-8l-13.6,13.4c9.1,9.4,23.9,13.9,37,13.9c21.1,0,36-9.2,43-24.5
			c1.7,3.8,3.9,7.3,6.5,10.3c8,9.2,19.7,14.1,34,14.1c9.6,0,17.9-2.1,24.5-6.3l10.3,10.2l0.2,0.2l12-12L88.4-424.7z M-53.3-461.9
			c1.4-11.2,10.1-16.7,22.3-16.7c11.5,0,20.9,5.6,24.1,16.7H-53.3z M69.2-432.8c-4.5,4.7-10.5,7.1-17.6,7.1c-16.1,0-24.8-13-25-25.9
			c-0.1-8,2.6-15.5,7.4-20.4c4.4-4.5,10.3-6.8,17.6-6.8c22,0,24.6,19.6,24.9,25.6C76.8-445.5,74.1-437.9,69.2-432.8z"/>
	</defs>
	<linearGradient id="XMLID_3_" gradientUnits="userSpaceOnUse" x1="-66.7177" y1="-475.9456" x2="86.2747" y2="-427.9481">
		<stop  offset="0" style="stop-color:#00E0FF"/>
		<stop  offset="1" style="stop-color:#00B2FF"/>
	</linearGradient>
	<use xlink:href="#XMLID_189_"  style="overflow:visible;fill:url(#XMLID_3_);"/>
	<clipPath id="XMLID_4_">
		<use xlink:href="#XMLID_189_"  style="overflow:visible;"/>
	</clipPath>
	<linearGradient id="XMLID_5_" gradientUnits="userSpaceOnUse" x1="-59.0941" y1="-500.2458" x2="93.8982" y2="-452.2482">
		<stop  offset="0" style="stop-color:#00E0FF"/>
		<stop  offset="1" style="stop-color:#00B2FF"/>
	</linearGradient>
	<rect id="XMLID_193_" x="-122.6" y="-536.2" class="st0" width="360.7" height="145.3"/>
</g>
<g id="XMLID_125_">
	<defs>
		<path id="XMLID_126_" d="M386.5,101.1c6.7-9.8,10.2-22.4,10.1-35.7v0c-0.3-15.1-5.2-28.9-14-38.9c-10.1-11.5-24.9-17.6-42.8-17.6
			c-16.5,0-30.6,5.4-40.7,15.5c-4.4,4.4-8,9.7-10.6,15.6c-8.7-19-27.4-31.1-52.6-31.1c-36.5,0-59.3,22.6-55.1,67.5h85.2
			c-1.8,13.5-13.5,23.2-32.5,23.2c-10,0-23-3.8-29.2-10.2l-17.3,17c11.5,11.9,30.3,17.7,46.9,17.7c26.7,0,45.7-11.7,54.5-31
			c2.2,4.8,4.9,9.2,8.3,13.1c10.1,11.7,25,17.9,43.1,17.9c12.2,0,22.7-2.7,31.1-8l13.1,12.9l0.3,0.3l15.2-15.2L386.5,101.1z
			 M206.8,53.9c1.8-14.2,12.8-21.2,28.3-21.2c14.6,0,26.5,7.1,30.5,21.2H206.8z M362.2,90.8c-5.7,5.9-13.4,9-22.3,9
			c-20.4,0-31.4-16.5-31.7-32.8c-0.2-10.2,3.3-19.6,9.4-25.9c5.6-5.7,13.1-8.6,22.3-8.6c28,0,31.2,24.8,31.6,32.4
			C371.8,74.7,368.4,84.3,362.2,90.8z"/>
	</defs>
	<linearGradient id="XMLID_6_" gradientUnits="userSpaceOnUse" x1="195.8025" y1="23.4692" x2="395.1665" y2="118.4931">
		<stop  offset="0" style="stop-color:#00E0FF"/>
		<stop  offset="1" style="stop-color:#00B2FF"/>
	</linearGradient>
	<use xlink:href="#XMLID_126_"  style="overflow:visible;fill:url(#XMLID_6_);"/>
	<clipPath id="XMLID_7_">
		<use xlink:href="#XMLID_126_"  style="overflow:visible;"/>
	</clipPath>
	<linearGradient id="XMLID_8_" gradientUnits="userSpaceOnUse" x1="212.92" y1="-12.444" x2="412.284" y2="82.5799">
		<stop  offset="0" style="stop-color:#00E0FF"/>
		<stop  offset="1" style="stop-color:#00B2FF"/>
	</linearGradient>
	<rect id="XMLID_130_" x="118.8" y="-40.4" class="st1" width="457.6" height="184.3"/>
</g>
<g id="XMLID_15_">
	<path id="XMLID_17_" class="st2" d="M16.6,240.6c0-16.3,12.3-28.1,27.6-28.1s28.9,9.4,26.8,30.6h-49c1.1,12.8,10.9,20.1,22.1,20.1
		c7.2,0,15.5-2.9,19.6-8.2l3.9,3.1c-5.3,6.9-14.7,10.4-23.4,10.4C28.9,268.5,16.6,257.9,16.6,240.6z M66.2,238.4
		c-0.1-13.4-8.9-20.9-22-20.9c-11.2,0-20.9,7.6-22.1,20.9H66.2z"/>
	<path id="XMLID_20_" class="st2" d="M137.7,290.4v-35.2c-4.6,9-13.2,13.5-22.4,13.5c-15.3,0-27.6-9.9-27.6-28.2
		c0-17.5,11.7-27.4,26.4-27.9c10.6,0,19.2,5.4,23.5,13.6v-12.9h5.3v77H137.7z M137.3,240.7c0-13.3-9.4-22.9-22-22.9
		c-12.3,0-22.2,7.5-22.2,22.8s9.9,23,22.2,23C127.7,263.6,137.3,254,137.3,240.7z"/>
	<path id="XMLID_24_" class="st2" d="M206.3,267.8V258c-4.2,7.5-11.8,10.6-19.4,10.7c-14.5,0-24.5-8.9-24.5-24v-31.3h5.4v31.2
		c0,12.3,7.6,18.9,19.4,18.8c11.2-0.1,19-8.6,19-19.8v-30.2h5.4v54.5H206.3z"/>
	<path id="XMLID_26_" class="st2" d="M238.5,195.7c0,5.7-8.7,5.7-8.7,0C229.8,190,238.5,190,238.5,195.7z M231.3,213.2v54.6h5.4
		v-54.6H231.3z"/>
	<path id="XMLID_29_" class="st2" d="M270,197v16.4h18.5v4.5H270v33.1c0,7.4,1.5,12.5,10,12.5c2.6,0,5.6-0.9,8.4-2.2l1.9,4.4
		c-3.4,1.7-6.8,2.8-10.2,2.8c-11.5,0-15.3-6.8-15.3-17.5v-33.1h-11.5v-4.5h11.5v-15.8L270,197z"/>
	<path id="XMLID_31_" class="st2" d="M303.4,240.6c0-16.3,12.3-28.1,27.6-28.1s28.9,9.4,26.8,30.6h-49c1.1,12.8,10.9,20.1,22.1,20.1
		c7.2,0,15.5-2.9,19.6-8.2l3.9,3.1c-5.3,6.9-14.7,10.4-23.4,10.4C315.7,268.5,303.4,257.9,303.4,240.6z M353,238.4
		c-0.1-13.4-8.9-20.9-22-20.9c-11.2,0-20.9,7.6-22.1,20.9H353z"/>
	<path id="XMLID_34_" class="st2" d="M429.5,213.4c0,18.1,0,36.2,0,54.3h-5.4v-11.5c-5.3,8.5-13.4,12.4-22.2,12.4
		c-15.2,0-27.6-11.4-27.6-28c0-16.6,12.4-27.8,27.6-27.8c8.8,0,17.7,4.1,22.2,12.5v-11.9H429.5z M379.7,240.6
		c0,13.6,9.9,22.8,22.2,22.8c30.2,0,30.2-45.4,0-45.4C389.6,217.9,379.7,227,379.7,240.6z"/>
	<path id="XMLID_37_" class="st2" d="M487,223.3c-5.5-4.8-10.9-5.7-16.9-5.7c-8.5-0.1-16.6,3.1-16.4,10c0.2,7.3,9.7,8.7,16.5,9.9
		c9.7,1.6,23,3.3,22.4,16c-0.3,12-12.8,15.2-22.3,15.2s-19-3.6-23.8-10.9l4-3.5c4.5,6.5,12.6,9.2,19.9,9.2c6.6,0,16.6-1.8,16.9-10.3
		c0.2-7.8-8.8-9.4-17.7-10.8c-10.6-1.8-21-3.7-21.1-14.6c-0.1-10.7,10.6-15.3,21.6-15.2c7.9,0,14.8,2.2,20.2,7.3L487,223.3z"/>
	<path id="XMLID_39_" class="st2" d="M556.5,213.4l-33.1,77h-5.7l10-23.3l-21.8-53.7h5.8l12.7,32.1l6.4,15.7l6.3-15.8l13.6-32H556.5
		z"/>
</g>
<g id="XMLID_54_">
	<path id="XMLID_55_" class="st2" d="M159.8-448.3c0-14.9,11.3-25.7,25.3-25.7c14,0,26.5,8.6,24.6,28h-44.8
		c1,11.7,10,18.4,20.2,18.4c6.5,0,14.2-2.6,17.9-7.6l3.5,2.8c-4.8,6.3-13.5,9.6-21.5,9.6C171-422.7,159.8-432.5,159.8-448.3z
		 M205.2-450.3c-0.1-12.3-8.2-19.1-20.1-19.1c-10.3,0-19.1,6.9-20.2,19.1H205.2z"/>
	<path id="XMLID_58_" class="st2" d="M270.6-402.7v-32.2c-4.2,8.3-12.1,12.4-20.5,12.4c-14,0-25.3-9.1-25.3-25.8
		c0-16,10.7-25.1,24.2-25.6c9.7,0,17.6,4.9,21.6,12.5v-11.8h4.8v70.5H270.6z M270.2-448.2c0-12.2-8.6-20.9-20.1-20.9
		c-11.3,0-20.3,6.8-20.3,20.8s9.1,21,20.3,21C261.5-427.2,270.2-436,270.2-448.2z"/>
	<path id="XMLID_61_" class="st2" d="M333.5-423.4v-9c-3.8,6.8-10.8,9.7-17.7,9.8c-13.3,0-22.5-8.2-22.5-22v-28.7h4.9v28.6
		c0,11.3,6.9,17.3,17.7,17.2c10.3-0.1,17.4-7.9,17.4-18.1v-27.7h4.9v49.9H333.5z"/>
	<path id="XMLID_63_" class="st2" d="M362.9-489.4c0,5.2-8,5.2-8,0S362.9-494.6,362.9-489.4z M356.3-473.4v50h4.9v-50H356.3z"/>
	<path id="XMLID_66_" class="st2" d="M391.8-488.2v15h16.9v4.1h-16.9v30.3c0,6.7,1.4,11.5,9.2,11.5c2.4,0,5.1-0.8,7.7-2l1.7,4
		c-3.1,1.5-6.2,2.5-9.4,2.5c-10.6,0-14-6.2-14-16V-469h-10.6v-4.1H387v-14.5L391.8-488.2z"/>
	<path id="XMLID_68_" class="st2" d="M422.3-448.3c0-14.9,11.3-25.7,25.3-25.7c14,0,26.5,8.6,24.6,28h-44.8
		c1,11.7,10,18.4,20.2,18.4c6.5,0,14.2-2.6,17.9-7.6l3.5,2.8c-4.8,6.3-13.5,9.6-21.5,9.6C433.6-422.7,422.3-432.5,422.3-448.3z
		 M467.7-450.3c-0.1-12.3-8.2-19.1-20.1-19.1c-10.3,0-19.1,6.9-20.2,19.1H467.7z"/>
	<path id="XMLID_71_" class="st2" d="M537.8-473.2c0,16.6,0,33.1,0,49.7h-4.9V-434c-4.8,7.8-12.3,11.4-20.3,11.4
		c-13.9,0-25.3-10.5-25.3-25.7c0-15.2,11.4-25.5,25.3-25.5c8.1,0,16.2,3.7,20.3,11.5v-10.9H537.8z M492.2-448.3
		c0,12.5,9.1,20.8,20.3,20.8c27.7,0,27.7-41.6,0-41.6C501.3-469,492.2-460.8,492.2-448.3z"/>
	<path id="XMLID_74_" class="st2" d="M590.4-464.1c-5-4.4-10-5.2-15.5-5.2c-7.8-0.1-15.2,2.8-15,9.2c0.2,6.6,8.9,8,15.1,9.1
		c8.9,1.5,21,3,20.5,14.6c-0.3,11-11.7,13.9-20.4,13.9c-8.8,0-17.4-3.3-21.8-10l3.6-3.2c4.1,5.9,11.6,8.5,18.2,8.5
		c6,0,15.2-1.6,15.5-9.5c0.2-7.2-8.1-8.6-16.2-9.9c-9.7-1.6-19.2-3.4-19.3-13.4c-0.1-9.8,9.7-14,19.7-13.9c7.3,0,13.6,2,18.5,6.6
		L590.4-464.1z"/>
	<path id="XMLID_76_" class="st2" d="M654-473.2l-30.3,70.5h-5.2l9.2-21.3l-19.9-49.1h5.3l11.6,29.4l5.8,14.4l5.7-14.5l12.5-29.3
		H654z"/>
</g>
</svg>
